<?xml version="1.0" encoding="iso-8859-1"?>
<!-- Uploaded to: SVG Repo, www.svgrepo.com, Generator: SVG Repo Mixer Tools -->
<!DOCTYPE svg PUBLIC "-//W3C//DTD SVG 1.1//EN" "http://www.w3.org/Graphics/SVG/1.1/DTD/svg11.dtd">
<svg fill="#ffffff" version="1.1" id="Capa_1" xmlns="http://www.w3.org/2000/svg" xmlns:xlink="http://www.w3.org/1999/xlink" 
	 width="800px" height="800px" viewBox="0 0 175.286 175.285"
	 xml:space="preserve">
<g>
	<g>
		<path d="M47.74,155.035h-2.7c-1.864,0-3.375,1.511-3.375,3.375c0,1.863,1.511,3.375,3.375,3.375h2.7
			c1.864,0,3.375-1.512,3.375-3.375C51.115,156.546,49.604,155.035,47.74,155.035z"/>
		<path d="M59.878,132.631c-1.318-1.316-3.455-1.316-4.773,0c-1.318,1.318-1.318,3.455,0,4.773l1.909,1.908
			c0.659,0.66,1.523,0.99,2.386,0.99c0.863,0,1.728-0.33,2.386-0.99c1.318-1.317,1.318-3.455,0-4.772L59.878,132.631z"/>
		<path d="M130.246,155.035h-2.7c-1.863,0-3.375,1.511-3.375,3.375c0,1.863,1.512,3.375,3.375,3.375h2.7
			c1.864,0,3.375-1.512,3.375-3.375C133.621,156.546,132.11,155.035,130.246,155.035z"/>
		<path d="M87.72,119.443c-1.821,0-3.08,1.512-3.08,3.375v2.701c0,1.863,1.02,3.375,3.08,3.375s3.222-1.512,3.222-3.375v-2.701
			C90.942,120.955,89.541,119.443,87.72,119.443z"/>
		<path d="M115.407,132.631l-1.909,1.909c-1.317,1.317-1.317,3.455,0,4.772c0.659,0.66,1.522,0.99,2.386,0.99
			c0.864,0,1.729-0.33,2.387-0.99l1.91-1.908c1.317-1.318,1.317-3.455,0-4.773C118.862,131.314,116.723,131.314,115.407,132.631z"/>
		<path d="M142.542,93.207c-7.398-6.416-15.889-11.487-24.879-14.995V45.686c16.1-0.133,29.859-7.328,39.812-20.839
			c7.471-10.143,10.142-20.2,10.252-20.623c0.263-1.012,0.043-2.088-0.598-2.914c-0.639-0.827-1.625-1.31-2.67-1.31H10.826
			c-1.045,0-2.031,0.483-2.67,1.31C7.517,2.136,7.296,3.212,7.559,4.224c0.11,0.424,2.781,10.481,10.252,20.623
			c9.953,13.51,23.712,20.706,39.812,20.839v32.527c-8.99,3.508-17.482,8.579-24.879,14.995
			c-16.409,14.231-25.446,33.337-25.446,53.796v24.906c0,1.863,1.511,3.375,3.375,3.375h153.94c1.864,0,3.375-1.512,3.375-3.375
			v-24.906C167.988,126.544,158.951,107.438,142.542,93.207z M23.375,21.018c-3.946-5.313-6.44-10.693-7.837-14.269h144.21
			c-1.397,3.576-3.892,8.956-7.837,14.269c-8.833,11.894-20.508,17.924-34.699,17.924h-9.994v0.006
			c-1.783,0.09-3.201,1.561-3.201,3.366c0,1.806,1.418,3.276,3.201,3.366v0.011h3.695v30.211
			c-7.301-2.158-14.824-3.299-22.273-3.299c-0.332,0-1.661,0-1.993,0c-7.45,0-14.973,1.141-22.274,3.299v-30.21l30.659-0.003
			c1.863,0,3.375-1.511,3.375-3.375c0-1.864-1.512-3.375-3.375-3.375l-36.958,0.003C43.883,38.942,32.208,32.912,23.375,21.018z
			 M77.645,168.535c0.008-0.087,0.02-0.174,0.02-0.264c0-3.488,1.737-6.578,4.39-8.453l1.931,4.771
			c0.532,1.312,1.795,2.108,3.13,2.108c0.422,0,0.85-0.08,1.265-0.247c1.728-0.7,2.562-2.667,1.862-4.395l-1.667-4.119
			c5.446,0.293,9.788,4.816,9.788,10.334c0,0.09,0.012,0.177,0.02,0.264H77.645z M105.115,168.271c0-9.428-7.671-17.1-17.1-17.1
			c-0.719,0-1.426,0.051-2.122,0.137l-9.375-23.16c-0.7-1.727-2.667-2.561-4.395-1.861s-2.562,2.667-1.862,4.395l9.221,22.78
			c-5.116,2.959-8.568,8.487-8.568,14.81l0.003,0.039c0,0-39.153,0.076-39.153,0c0-31.018,24.83-56.25,55.35-56.25
			c0.177,0,0.88,0,1.056,0c30.521,0,55.351,25.232,55.351,56.25C143.52,168.385,105.115,168.361,105.115,168.271z M161.238,168.535
			H150.26c0.004-0.075,0.01-0.148,0.01-0.225c0-16.631-6.451-32.375-18.164-44.336c-11.785-12.037-27.389-18.664-43.936-18.664
			c-0.176,0-0.88,0-1.056,0c-16.547,0-32.15,6.627-43.936,18.664c-11.713,11.961-18.164,27.707-18.164,44.336
			c0,0.076,0.006,0.149,0.011,0.225H14.047v-21.531c0-39.867,38.261-67.649,72.599-67.649c0.331,0,1.661,0,1.993,0
			c34.338,0,72.599,27.782,72.599,67.649V168.535z"/>
	</g>
</g>
</svg>