<?xml version="1.0" encoding="iso-8859-1"?>
<!-- Uploaded to: SVG Repo, www.svgrepo.com, Generator: SVG Repo Mixer Tools -->
<!DOCTYPE svg PUBLIC "-//W3C//DTD SVG 1.1//EN" "http://www.w3.org/Graphics/SVG/1.1/DTD/svg11.dtd">
<svg fill="#000000" version="1.1" id="Capa_1" xmlns="http://www.w3.org/2000/svg" xmlns:xlink="http://www.w3.org/1999/xlink" 
	 width="800px" height="800px" viewBox="0 0 187.549 187.549"
	 xml:space="preserve">
<g>
	<path d="M160.397,93.774c1.596-1.809,3.104-3.62,4.516-5.423c12.59-16.217,16.166-30.928,10.078-41.467
		c-3.387-5.857-11.225-12.838-29.365-12.838c-5.645,0-11.904,0.774-18.494,2.113C119.631,13.923,107.715,0,93.757,0
		C79.798,0,67.894,13.935,60.394,36.171c-6.579-1.345-12.83-2.113-18.466-2.113c-18.146,0-25.983,6.981-29.373,12.839
		c-6.083,10.533-2.506,25.25,10.083,41.455c1.404,1.809,2.911,3.626,4.51,5.423c-1.593,1.809-3.101,3.623-4.51,5.42
		c-12.59,16.207-16.166,30.914-10.083,41.458c3.384,5.858,11.228,12.839,29.373,12.839c0,0,0,0,0.006,0
		c5.707,0,11.943-0.751,18.483-2.069c7.501,22.213,19.405,36.121,33.352,36.127l0,0c13.958,0,25.868-13.926,33.369-36.162
		c6.591,1.342,12.85,2.116,18.488,2.116c18.141,0,25.979-6.98,29.359-12.832c6.088-10.533,2.518-25.257-10.078-41.477
		C163.501,97.397,161.987,95.583,160.397,93.774z M145.626,46.151c9.652,0,16.344,2.403,18.873,6.792
		c3.376,5.81-0.059,16.269-9.149,27.97c-1.069,1.386-2.252,2.766-3.452,4.152c-5.278-5.024-11.183-9.939-17.613-14.635
		c-0.857-8.062-2.116-15.678-3.795-22.662C135.909,46.716,141.01,46.151,145.626,46.151z M108.607,119.463
		c-4.924,2.843-9.895,5.378-14.839,7.714c-4.944-2.348-9.916-4.883-14.836-7.714c-4.927-2.855-9.658-5.846-14.156-8.955
		c-0.423-5.35-0.665-10.935-0.665-16.745c0-5.689,0.225-11.296,0.665-16.748c4.498-3.112,9.229-6.1,14.156-8.952
		c4.915-2.843,9.892-5.382,14.836-7.716c4.944,2.349,9.909,4.885,14.839,7.716c4.924,2.852,9.67,5.852,14.168,8.952
		c0.414,5.358,0.656,10.938,0.656,16.748c0,5.805-0.236,11.39-0.65,16.745C118.277,113.604,113.537,116.607,108.607,119.463z
		 M120.872,126.183c-0.62,3.736-1.359,7.259-2.157,10.651c-3.393-0.999-6.827-2.146-10.344-3.458
		c2.099-1.129,4.19-2.222,6.295-3.422C116.771,128.725,118.827,127.46,120.872,126.183z M79.175,133.376
		c-3.511,1.307-6.954,2.453-10.338,3.446c-0.804-3.381-1.543-6.903-2.161-10.627c2.04,1.265,4.093,2.529,6.198,3.747
		C74.969,131.154,77.082,132.247,79.175,133.376z M52.157,101.021c-2.888-2.394-5.562-4.816-8.13-7.246
		c2.568-2.429,5.243-4.873,8.13-7.247c-0.08,2.4-0.151,4.805-0.151,7.247S52.077,98.621,52.157,101.021z M66.688,61.351
		c0.617-3.667,1.374-7.19,2.199-10.615c3.369,1.005,6.797,2.143,10.288,3.437c-2.104,1.126-4.211,2.222-6.301,3.425
		C70.781,58.821,68.733,60.074,66.688,61.351z M108.359,54.172c3.517-1.312,6.951-2.453,10.344-3.458
		c0.804,3.39,1.543,6.912,2.151,10.648c-2.045-1.277-4.096-2.542-6.2-3.759C112.562,56.395,110.464,55.298,108.359,54.172z
		 M135.389,86.543c2.885,2.385,5.562,4.802,8.128,7.231c-2.565,2.43-5.243,4.858-8.128,7.229c0.077-2.394,0.143-4.775,0.143-7.229
		S135.466,88.928,135.389,86.543z M74.115,34.028c5.585-13.728,12.936-21.923,19.647-21.923c7.669,0,15.796,10.072,21.606,27.021
		c-7.004,2.069-14.257,4.702-21.606,7.935c-7.318-3.209-14.538-5.843-21.536-7.911C72.838,37.4,73.456,35.657,74.115,34.028z
		 M23.037,52.949c2.53-4.374,9.236-6.786,18.891-6.786c4.617,0,9.709,0.564,15.114,1.605c-1.679,6.983-2.938,14.6-3.789,22.662
		c-6.428,4.696-12.336,9.611-17.614,14.635c-1.191-1.386-2.374-2.766-3.437-4.146C23.117,69.206,19.689,58.759,23.037,52.949z
		 M41.94,141.386L41.94,141.386c-9.661,0-16.367-2.412-18.897-6.785c-3.36-5.811,0.068-16.267,9.165-27.971
		c1.069-1.383,2.246-2.76,3.437-4.148c5.284,5.023,11.186,9.941,17.614,14.646c0.852,8.051,2.11,15.67,3.789,22.65
		C51.648,140.818,46.565,141.386,41.94,141.386z M93.774,175.443c-7.657-0.006-15.773-10.048-21.589-26.953
		c7.013-2.068,14.259-4.705,21.63-7.956c7.326,3.204,14.562,5.84,21.56,7.909C109.565,165.372,101.449,175.443,93.774,175.443z
		 M164.499,134.612c-2.523,4.386-9.215,6.785-18.866,6.785c-4.623,0-9.712-0.567-15.132-1.607
		c1.679-6.992,2.938-14.611,3.801-22.674c6.431-4.699,12.323-9.611,17.602-14.635c1.2,1.389,2.389,2.766,3.452,4.154
		C164.446,118.346,167.868,128.796,164.499,134.612z"/>
</g>
</svg>