<?xml version="1.0" encoding="iso-8859-1"?>
<!-- Uploaded to: SVG Repo, www.svgrepo.com, Generator: SVG Repo Mixer Tools -->
<svg fill="#000000" height="800px" width="800px" version="1.1" id="Layer_1" xmlns="http://www.w3.org/2000/svg" xmlns:xlink="http://www.w3.org/1999/xlink" 
	 viewBox="0 0 512 512" xml:space="preserve">
<g>
	<g>
		<path d="M486.881,38.48H25.119C11.268,38.48,0,49.748,0,63.599v384.802c0,13.851,11.268,25.119,25.119,25.119h461.762
			c13.851,0,25.119-11.268,25.119-25.119V63.599C512,49.748,500.732,38.48,486.881,38.48z M426.489,54.514h26.722v26.722h-26.722
			V54.514z M383.733,54.514h26.722v26.722h-26.722V54.514z M58.789,54.514h308.91v26.722H58.789V54.514z M16.033,63.599
			c0-5.01,4.076-9.086,9.086-9.086h17.637v26.722H16.033V63.599z M495.967,448.401c0,5.01-4.076,9.086-9.086,9.086H25.119
			c-5.01,0-9.086-4.076-9.086-9.086V97.269h479.933V448.401z M495.967,81.236h-26.722V54.514h17.637c5.01,0,9.086,4.076,9.086,9.086
			V81.236z"/>
	</g>
</g>
<g>
	<g>
		<path d="M461.228,115.44H50.772c-9.136,0-16.568,7.432-16.568,16.568v119.716c0,9.136,7.432,16.568,16.568,16.568h410.455
			c9.136,0,16.568-7.432,16.568-16.568V132.008C477.795,122.872,470.363,115.44,461.228,115.44z M162.472,252.259H50.772
			c-0.295,0-0.534-0.239-0.534-0.534V132.008c0-0.295,0.239-0.534,0.534-0.534h111.699V252.259z M461.762,251.724
			c0,0.295-0.239,0.534-0.534,0.534H178.505V131.474h282.722c0.295,0,0.534,0.239,0.534,0.534V251.724z"/>
	</g>
</g>
<g>
	<g>
		<path d="M461.228,286.464H50.772c-9.136,0-16.568,7.432-16.568,16.568v119.716c0,9.136,7.432,16.568,16.568,16.568h410.455
			c9.136,0,16.568-7.432,16.568-16.568V303.031C477.795,293.896,470.363,286.464,461.228,286.464z M162.472,423.282H50.772
			c-0.295,0-0.534-0.239-0.534-0.534V303.031c0-0.295,0.239-0.534,0.534-0.534h111.699V423.282z M461.762,422.747
			c0,0.295-0.239,0.534-0.534,0.534H178.505V302.497h282.722c0.295,0,0.534,0.239,0.534,0.534V422.747z"/>
	</g>
</g>
<g>
	<g>
		<path d="M136.284,158.196h-21.912v-0.534c0-4.427-3.589-8.017-8.017-8.017s-8.017,3.589-8.017,8.017v0.534H76.426
			c-4.427,0-8.017,3.589-8.017,8.017s3.589,8.017,8.017,8.017h35.375c-0.781,4.921-2.347,11.576-5.446,18.443
			c-0.532-1.184-1.045-2.389-1.52-3.636c-1.576-4.138-6.207-6.213-10.345-4.64c-4.138,1.576-6.215,6.207-4.64,10.345
			c1.797,4.719,3.975,9.12,6.49,13.194c-3.924,4.211-8.782,8.004-14.832,10.908c-3.991,1.915-5.674,6.704-3.758,10.696
			c1.379,2.873,4.246,4.549,7.233,4.549c1.163,0,2.344-0.254,3.463-0.792c7.204-3.458,13.111-7.806,17.963-12.616
			c5.192,5.159,11.169,9.407,17.854,12.616c1.119,0.537,2.3,0.792,3.463,0.792c2.986,0,5.854-1.677,7.233-4.549
			c1.915-3.991,0.233-8.78-3.758-10.696c-5.656-2.714-10.585-6.339-14.786-10.82c7.702-12.508,10.547-25.642,11.595-33.794h8.273
			c4.427,0,8.017-3.589,8.017-8.017C144.301,161.785,140.711,158.196,136.284,158.196z"/>
	</g>
</g>
<g>
	<g>
		<path d="M144.061,395.15l-15.483-61.933c-1.848-7.388-8.457-12.549-16.073-12.549h-12.301c-7.616,0-14.226,5.161-16.073,12.55
			L68.649,395.15c-1.074,4.296,1.537,8.647,5.833,9.722c4.292,1.076,8.648-1.537,9.722-5.833l2.757-11.03h38.789l2.758,11.03
			c0.911,3.643,4.179,6.075,7.771,6.075c0.643,0,1.298-0.078,1.951-0.242C142.523,403.797,145.135,399.446,144.061,395.15z
			 M90.968,371.975l8.717-34.868c0.06-0.239,0.273-0.405,0.518-0.405h12.301c0.246,0,0.46,0.167,0.518,0.404l8.719,34.869H90.968z"
			/>
	</g>
</g>
<g>
	<g>
		<path d="M298.756,158.196h-85.511c-4.427,0-8.017,3.589-8.017,8.017s3.589,8.017,8.017,8.017h85.511
			c4.427,0,8.017-3.589,8.017-8.017S303.183,158.196,298.756,158.196z"/>
	</g>
</g>
<g>
	<g>
		<path d="M367.165,192.401H213.244c-4.427,0-8.017,3.589-8.017,8.017s3.589,8.017,8.017,8.017h153.921
			c4.427,0,8.017-3.589,8.017-8.017S371.592,192.401,367.165,192.401z"/>
	</g>
</g>
<g>
	<g>
		<path d="M401.37,158.196H332.96c-4.427,0-8.017,3.589-8.017,8.017s3.589,8.017,8.017,8.017h68.409
			c4.427,0,8.017-3.589,8.017-8.017S405.797,158.196,401.37,158.196z"/>
	</g>
</g>
<g>
	<g>
		<path d="M281.653,329.219h-68.409c-4.427,0-8.017,3.589-8.017,8.017s3.589,8.017,8.017,8.017h68.409
			c4.427,0,8.017-3.589,8.017-8.017S286.081,329.219,281.653,329.219z"/>
	</g>
</g>
<g>
	<g>
		<path d="M332.96,363.424H213.244c-4.427,0-8.017,3.589-8.017,8.017c0,4.427,3.589,8.017,8.017,8.017H332.96
			c4.427,0,8.017-3.589,8.017-8.017C340.977,367.013,337.388,363.424,332.96,363.424z"/>
	</g>
</g>
<g>
	<g>
		<path d="M384.267,329.219h-68.409c-4.427,0-8.017,3.589-8.017,8.017s3.589,8.017,8.017,8.017h68.409
			c4.427,0,8.017-3.589,8.017-8.017S388.695,329.219,384.267,329.219z"/>
	</g>
</g>
</svg>