<?xml version="1.0" ?>
<!-- Uploaded to: SVG Repo, www.svgrepo.com, Generator: SVG Repo Mixer Tools -->
<svg fill="#000000" width="800px" height="800px" viewBox="0 0 64 64" id="Layer_1_1_" version="1.1" xml:space="preserve" xmlns="http://www.w3.org/2000/svg" xmlns:xlink="http://www.w3.org/1999/xlink">
<g>
<path d="M19,23h26V9H19V23z M21,11h22v10H21V11z"/>
<path d="M35,31h10v-6H35V31z M37,27h6v2h-6V27z"/>
<path d="M35,39h10v-6H35V39z M37,35h6v2h-6V35z"/>
<rect height="2" width="2" x="23" y="45"/>
<rect height="2" width="2" x="23" y="49"/>
<rect height="2" width="2" x="23" y="53"/>
<rect height="2" width="2" x="27" y="45"/>
<rect height="2" width="2" x="27" y="49"/>
<rect height="2" width="2" x="27" y="53"/>
<rect height="2" width="2" x="31" y="45"/>
<rect height="2" width="2" x="31" y="49"/>
<rect height="2" width="2" x="31" y="53"/>
<rect height="2" width="2" x="35" y="45"/>
<rect height="2" width="2" x="35" y="49"/>
<rect height="2" width="2" x="35" y="53"/>
<rect height="2" width="2" x="23" y="57"/>
<rect height="2" width="2" x="27" y="57"/>
<rect height="2" width="2" x="31" y="57"/>
<rect height="2" width="2" x="35" y="57"/>
<rect height="2" width="2" x="39" y="45"/>
<rect height="2" width="2" x="39" y="49"/>
<rect height="2" width="2" x="39" y="53"/>
<rect height="2" width="2" x="39" y="57"/>
<rect height="2" width="2" x="25" y="5"/>
<rect height="2" width="6" x="29" y="5"/>
<rect height="2" width="2" x="37" y="5"/>
<path d="M53,44.219l-4-1V4c0-1.654-1.346-3-3-3H18c-1.654,0-3,1.346-3,3v3h-2c-1.103,0-2,0.897-2,2v6c0,1.103,0.897,2,2,2h2v43   c0,1.654,1.346,3,3,3h28c1.654,0,3-1.346,3-3v-7.219l4-1V44.219z M15,9v2h-2V9H15z M13,15v-2h2v2H13z M43,61H21V43h22V61z M47,60   c0,0.551-0.448,1-1,1h-1V41H19v20h-1c-0.552,0-1-0.449-1-1V4c0-0.551,0.448-1,1-1h28c0.552,0,1,0.449,1,1V60z M51,50.219l-2,0.5   v-5.438l2,0.5V50.219z"/>
<path d="M25,26c-3.309,0-6,2.691-6,6s2.691,6,6,6s6-2.691,6-6S28.309,26,25,26z M25,36c-2.206,0-4-1.794-4-4s1.794-4,4-4   s4,1.794,4,4S27.206,36,25,36z"/>
</g>
</svg>